<?xml version="1.0" encoding="utf-8"?>
<!-- Generator: Adobe Illustrator 26.1.0, SVG Export Plug-In . SVG Version: 6.00 Build 0)  -->
<svg version="1.1" id="Layer_1" xmlns="http://www.w3.org/2000/svg" xmlns:xlink="http://www.w3.org/1999/xlink" x="0px" y="0px" viewBox="0 0 2989 929" style="enable-background:new 0 0 2989 929;" xml:space="preserve" width="600px" fill="#fff">
	<path id="e_00000176044144780719559350000011892121048540589448_" d="M2918.3,536.8c-19.8-35.7-47.1-63.7-81.9-84.2
	c-34.8-20.4-74.7-30.7-119.9-30.7c-45.1,0-85.6,10.2-121.2,30.7c-35.7,20.4-63.8,48.4-84.2,84c-20.4,35.5-30.7,75.9-30.7,121
	c0,46.4,10.9,87.7,32.7,124c21.8,36.3,51.9,64.7,90.4,85.3c38.4,20.6,82.4,30.9,131.8,30.9c30.8,0,62.8-5.2,95.9-15.6
	c33.1-10.4,66.3-29.4,99.5-57.2l-44.4-56.7c-22.6,21.4-47.6,36.8-75,46.4c-27.5,9.6-53.5,14.4-78.2,14.4c-44.5,0-82.6-13-114.2-39.1
	s-51.2-59.4-58.8-100h388v-30.7C2948.1,613.4,2938.1,572.5,2918.3,536.8z M2612.2,528.8c28.7-25.5,63.3-38.2,103.9-38.2
	c40,0,73.8,12.6,101.6,37.7c27.8,25.2,45,57.7,51.7,97.7h-310.2C2565.9,586.7,2583.6,554.3,2612.2,528.8z"/>
	<path id="h" d="M2027,889l0-277.7c0-28.7,6.7-53.4,20.1-74c13.4-20.6,30.8-36.4,52-47.3c21.2-10.9,44-16.4,68.4-16.4
	c24.4,0,47.3,5.6,68.9,16.9c21.6,11.2,38.9,27.3,52,48.3c13.1,20.9,19.5,45.6,19.5,74.3v276h86V612c0-42.5-8.4-79.4-25.9-111.3
	c-17.5-31.9-41.9-56.7-73.1-74.5c-31.2-17.8-68.1-26.7-110.6-26.7c-30,0-58.9,5.9-86.7,17.8c-27.8,11.9-51.4,30.7-70.8,55.7V205h-86
	v684H2027z"/>
	<path id="t" d="M1508,669c-22.3,0-39.6-6.9-52.1-20.1c-12.5-13.2-18.9-30.7-18.9-52.9V313h172l0,356H1508z M1609,749v140h90V313h199
	v-81h-461V103h-93v129l-89,0v81h89v289c0,45.2,13.1,80.8,39,107.1s62.1,39.9,108,39.9H1609z"/>
	<path id="e" d="M1189.6,368.6c-21.4-38.5-50.9-68.8-88.5-90.9c-37.6-22.1-80.7-33.1-129.5-33.1c-48.8,0-92.4,11-131,33.1
	c-38.5,22.1-68.9,52.3-90.9,90.7c-22.1,38.4-33.1,81.9-33.1,130.7c0,50.1,11.8,94.7,35.3,133.9c23.6,39.2,56.1,69.9,97.6,92.2
	c41.5,22.2,88.9,33.3,142.3,33.3c33.3,0,67.8-5.6,103.5-16.8c35.7-11.2,71.6-31.8,107.5-61.8l-47.9-61.3
	c-24.4,23.1-51.4,39.8-81,50.2c-29.7,10.4-57.8,15.6-84.5,15.6c-48.1,0-89.2-14.1-123.3-42.2c-34.1-28.2-55.3-64.2-63.5-108h419V501
	C1221.7,451.3,1211,407.2,1189.6,368.6z M859,360c31-27.5,68.4-41.3,112.2-41.3c43.2,0,79.7,13.6,109.7,40.8
	c30,27.2,48.6,62.3,55.8,105.5h-335C808.9,422.5,828,387.5,859,360z"/>
	<path id="X" d="M150,749l205.4-317.1c54,0.7,95.8,15.7,125.5,45C510.6,506.2,525,543.5,525,588v161h98V595c0-42.5-8.5-81-24.7-115.1
	c-16.2-34.1-39.8-62.2-70.8-84.5c-31-22.2-68.8-36.8-113.3-43.5L620,40H510L312.9,345.8c-29.7-2-56.2-10.6-79.5-25.8
	c-23.3-15.2-41.5-34.8-54.6-58.7c-13.2-23.9-19.8-49-19.8-75.3V40H63v135c0,44.5,8.4,83.6,25.3,117.7c16.9,34.1,39.6,61.9,68.3,83.5
	c28.7,21.6,61,37,97.4,45.8L40,749H150z"/>
</svg>
